<svg xmlns="http://www.w3.org/2000/svg" width="45" height="45" viewBox="0 0 45 45" fill="none">
  <path d="M41.25 9.375H3.75C3.25272 9.375 2.77581 9.57254 2.42417 9.92418C2.07254 10.2758 1.875 10.7527 1.875 11.25V18.75C1.87826 19.9105 2.2404 21.0416 2.91176 21.9882C3.58312 22.9349 4.53084 23.6507 5.625 24.0375V41.25C5.625 41.7473 5.82254 42.2242 6.17417 42.5758C6.52581 42.9275 7.00272 43.125 7.5 43.125H37.5C37.9973 43.125 38.4742 42.9275 38.8258 42.5758C39.1775 42.2242 39.375 41.7473 39.375 41.25V24.0375C40.4692 23.6507 41.4169 22.9349 42.0882 21.9882C42.7596 21.0416 43.1217 19.9105 43.125 18.75V11.25C43.125 10.7527 42.9275 10.2758 42.5758 9.92418C42.2242 9.57254 41.7473 9.375 41.25 9.375ZM28.125 13.125H31.875V18.75C31.875 19.2473 31.6775 19.7242 31.3258 20.0758C30.9742 20.4275 30.4973 20.625 30 20.625C29.5027 20.625 29.0258 20.4275 28.6742 20.0758C28.3225 19.7242 28.125 19.2473 28.125 18.75V13.125ZM20.625 13.125H24.375V18.75C24.375 19.2473 24.1775 19.7242 23.8258 20.0758C23.4742 20.4275 22.9973 20.625 22.5 20.625C22.0027 20.625 21.5258 20.4275 21.1742 20.0758C20.8225 19.7242 20.625 19.2473 20.625 18.75V13.125ZM13.125 13.125H16.875V18.75C16.875 19.2473 16.6775 19.7242 16.3258 20.0758C15.9742 20.4275 15.4973 20.625 15 20.625C14.5027 20.625 14.0258 20.4275 13.6742 20.0758C13.3225 19.7242 13.125 19.2473 13.125 18.75V13.125ZM7.5 20.625C7.00272 20.625 6.52581 20.4275 6.17417 20.0758C5.82254 19.7242 5.625 19.2473 5.625 18.75V13.125H9.375V18.75C9.375 19.2473 9.17746 19.7242 8.82582 20.0758C8.47419 20.4275 7.99728 20.625 7.5 20.625ZM26.25 39.375H18.75V35.625C18.75 34.6304 19.1451 33.6766 19.8484 32.9734C20.5516 32.2701 21.5054 31.875 22.5 31.875C23.4946 31.875 24.4484 32.2701 25.1516 32.9734C25.8549 33.6766 26.25 34.6304 26.25 35.625V39.375ZM35.625 39.375H30V35.625C30 33.6359 29.2098 31.7282 27.8033 30.3217C26.3968 28.9152 24.4891 28.125 22.5 28.125C20.5109 28.125 18.6032 28.9152 17.1967 30.3217C15.7902 31.7282 15 33.6359 15 35.625V39.375H9.375V24.0375C10.0642 23.7817 10.6999 23.4002 11.25 22.9125C12.2813 23.8349 13.6164 24.3449 15 24.3449C16.3836 24.3449 17.7187 23.8349 18.75 22.9125C19.7813 23.8349 21.1164 24.3449 22.5 24.3449C23.8836 24.3449 25.2187 23.8349 26.25 22.9125C27.2813 23.8349 28.6164 24.3449 30 24.3449C31.3836 24.3449 32.7187 23.8349 33.75 22.9125C34.3 23.4002 34.9358 23.7817 35.625 24.0375V39.375ZM39.375 18.75C39.375 19.2473 39.1775 19.7242 38.8258 20.0758C38.4742 20.4275 37.9973 20.625 37.5 20.625C37.0027 20.625 36.5258 20.4275 36.1742 20.0758C35.8225 19.7242 35.625 19.2473 35.625 18.75V13.125H39.375V18.75ZM8.0625 5.625H37.5C37.9973 5.625 38.4742 5.42746 38.8258 5.07583C39.1775 4.72419 39.375 4.24728 39.375 3.75C39.375 3.25272 39.1775 2.77581 38.8258 2.42417C38.4742 2.07254 37.9973 1.875 37.5 1.875H8.0625C7.56522 1.875 7.08831 2.07254 6.73667 2.42417C6.38504 2.77581 6.1875 3.25272 6.1875 3.75C6.1875 4.24728 6.38504 4.72419 6.73667 5.07583C7.08831 5.42746 7.56522 5.625 8.0625 5.625Z" fill="#7C3AED"/>
</svg>