<svg xmlns="http://www.w3.org/2000/svg" width="45" height="45" viewBox="0 0 45 45" fill="none">
  <path d="M6.5625 11.25C6.19166 11.25 5.82915 11.36 5.52081 11.566C5.21246 11.772 4.97214 12.0649 4.83023 12.4075C4.68831 12.7501 4.65118 13.1271 4.72353 13.4908C4.79588 13.8545 4.97445 14.1886 5.23668 14.4508C5.4989 14.713 5.83299 14.8916 6.19671 14.964C6.56042 15.0363 6.93742 14.9992 7.28003 14.8573C7.62264 14.7154 7.91548 14.475 8.12151 14.1667C8.32753 13.8584 8.4375 13.4958 8.4375 13.125C8.4375 12.6277 8.23996 12.1508 7.88833 11.7992C7.5367 11.4475 7.05978 11.25 6.5625 11.25ZM14.0625 15H40.3125C40.8098 15 41.2867 14.8025 41.6383 14.4508C41.99 14.0992 42.1875 13.6223 42.1875 13.125C42.1875 12.6277 41.99 12.1508 41.6383 11.7992C41.2867 11.4475 40.8098 11.25 40.3125 11.25H14.0625C13.5652 11.25 13.0883 11.4475 12.7367 11.7992C12.385 12.1508 12.1875 12.6277 12.1875 13.125C12.1875 13.6223 12.385 14.0992 12.7367 14.4508C13.0883 14.8025 13.5652 15 14.0625 15ZM14.0625 20.625C13.6917 20.625 13.3291 20.735 13.0208 20.941C12.7125 21.147 12.4721 21.4399 12.3302 21.7825C12.1883 22.1251 12.1512 22.5021 12.2235 22.8658C12.2959 23.2295 12.4745 23.5636 12.7367 23.8258C12.9989 24.088 13.333 24.2666 13.6967 24.339C14.0604 24.4113 14.4374 24.3742 14.78 24.2323C15.1226 24.0904 15.4155 23.85 15.6215 23.5417C15.8275 23.2334 15.9375 22.8708 15.9375 22.5C15.9375 22.0027 15.74 21.5258 15.3883 21.1742C15.0367 20.8225 14.5598 20.625 14.0625 20.625ZM21.5625 30C21.1917 30 20.8291 30.11 20.5208 30.316C20.2125 30.522 19.9721 30.8149 19.8302 31.1575C19.6883 31.5001 19.6512 31.8771 19.7235 32.2408C19.7959 32.6045 19.9745 32.9386 20.2367 33.2008C20.4989 33.463 20.833 33.6416 21.1967 33.714C21.5604 33.7863 21.9374 33.7492 22.28 33.6073C22.6226 33.4654 22.9155 33.225 23.1215 32.9167C23.3275 32.6084 23.4375 32.2458 23.4375 31.875C23.4375 31.3777 23.24 30.9008 22.8883 30.5492C22.5367 30.1975 22.0598 30 21.5625 30ZM40.3125 20.625H21.5625C21.0652 20.625 20.5883 20.8225 20.2367 21.1742C19.885 21.5258 19.6875 22.0027 19.6875 22.5C19.6875 22.9973 19.885 23.4742 20.2367 23.8258C20.5883 24.1775 21.0652 24.375 21.5625 24.375H40.3125C40.8098 24.375 41.2867 24.1775 41.6383 23.8258C41.99 23.4742 42.1875 22.9973 42.1875 22.5C42.1875 22.0027 41.99 21.5258 41.6383 21.1742C41.2867 20.8225 40.8098 20.625 40.3125 20.625ZM40.3125 30H29.0625C28.5652 30 28.0883 30.1975 27.7367 30.5492C27.385 30.9008 27.1875 31.3777 27.1875 31.875C27.1875 32.3723 27.385 32.8492 27.7367 33.2008C28.0883 33.5525 28.5652 33.75 29.0625 33.75H40.3125C40.8098 33.75 41.2867 33.5525 41.6383 33.2008C41.99 32.8492 42.1875 32.3723 42.1875 31.875C42.1875 31.3777 41.99 30.9008 41.6383 30.5492C41.2867 30.1975 40.8098 30 40.3125 30Z" fill="#9333EA"/>
</svg>