<svg xmlns="http://www.w3.org/2000/svg" width="18" height="19" viewBox="0 0 18 19" fill="none">
<path d="M15 6.5L10.5 2.555C10.0875 2.18604 9.55346 1.98206 9.00001 1.98206C8.44656 1.98206 7.91253 2.18604 7.50001 2.555L3.00001 6.5C2.76179 6.71306 2.57169 6.97442 2.44236 7.26669C2.31304 7.55895 2.24747 7.87542 2.25001 8.195V14.75C2.25001 15.3467 2.48706 15.919 2.90902 16.341C3.33098 16.763 3.90327 17 4.50001 17H13.5C14.0967 17 14.669 16.763 15.091 16.341C15.513 15.919 15.75 15.3467 15.75 14.75V8.1875C15.7515 7.86918 15.6854 7.55416 15.5561 7.26327C15.4268 6.97237 15.2373 6.71222 15 6.5V6.5ZM10.5 15.5H7.50001V11.75C7.50001 11.5511 7.57903 11.3603 7.71968 11.2197C7.86033 11.079 8.0511 11 8.25001 11H9.75001C9.94892 11 10.1397 11.079 10.2803 11.2197C10.421 11.3603 10.5 11.5511 10.5 11.75V15.5ZM14.25 14.75C14.25 14.9489 14.171 15.1397 14.0303 15.2803C13.8897 15.421 13.6989 15.5 13.5 15.5H12V11.75C12 11.1533 11.763 10.581 11.341 10.159C10.919 9.73706 10.3467 9.5 9.75001 9.5H8.25001C7.65327 9.5 7.08098 9.73706 6.65902 10.159C6.23706 10.581 6.00001 11.1533 6.00001 11.75V15.5H4.50001C4.3011 15.5 4.11033 15.421 3.96968 15.2803C3.82903 15.1397 3.75001 14.9489 3.75001 14.75V8.1875C3.75014 8.08102 3.77296 7.97578 3.81692 7.87879C3.86089 7.7818 3.92501 7.69529 4.00501 7.625L8.50501 3.6875C8.64188 3.56727 8.81783 3.50095 9.00001 3.50095C9.18219 3.50095 9.35814 3.56727 9.49501 3.6875L13.995 7.625C14.075 7.69529 14.1391 7.7818 14.1831 7.87879C14.2271 7.97578 14.2499 8.08102 14.25 8.1875V14.75Z" fill="white"/>
</svg>