<svg xmlns="http://www.w3.org/2000/svg" width="18" height="19" viewBox="0 0 18 19" fill="none">
<path d="M2.625 5C2.47666 5 2.33166 5.04399 2.20832 5.1264C2.08499 5.20881 1.98886 5.32594 1.93209 5.46299C1.87532 5.60003 1.86047 5.75083 1.88941 5.89632C1.91835 6.0418 1.98978 6.17544 2.09467 6.28033C2.19956 6.38522 2.3332 6.45665 2.47868 6.48559C2.62417 6.51453 2.77497 6.49968 2.91201 6.44291C3.04906 6.38614 3.16619 6.29001 3.2486 6.16668C3.33101 6.04334 3.375 5.89834 3.375 5.75C3.375 5.55109 3.29598 5.36032 3.15533 5.21967C3.01468 5.07902 2.82391 5 2.625 5ZM5.625 6.5H16.125C16.3239 6.5 16.5147 6.42098 16.6553 6.28033C16.796 6.13968 16.875 5.94891 16.875 5.75C16.875 5.55109 16.796 5.36032 16.6553 5.21967C16.5147 5.07902 16.3239 5 16.125 5H5.625C5.42609 5 5.23532 5.07902 5.09467 5.21967C4.95402 5.36032 4.875 5.55109 4.875 5.75C4.875 5.94891 4.95402 6.13968 5.09467 6.28033C5.23532 6.42098 5.42609 6.5 5.625 6.5ZM5.625 8.75C5.47666 8.75 5.33166 8.79399 5.20832 8.8764C5.08499 8.95881 4.98886 9.07594 4.93209 9.21299C4.87532 9.35003 4.86047 9.50083 4.88941 9.64632C4.91835 9.7918 4.98978 9.92544 5.09467 10.0303C5.19956 10.1352 5.3332 10.2067 5.47868 10.2356C5.62417 10.2645 5.77497 10.2497 5.91201 10.1929C6.04906 10.1361 6.16619 10.04 6.2486 9.91668C6.33101 9.79334 6.375 9.64834 6.375 9.5C6.375 9.30109 6.29598 9.11032 6.15533 8.96967C6.01468 8.82902 5.82391 8.75 5.625 8.75ZM8.625 12.5C8.47666 12.5 8.33166 12.544 8.20832 12.6264C8.08499 12.7088 7.98886 12.8259 7.93209 12.963C7.87533 13.1 7.86047 13.2508 7.88941 13.3963C7.91835 13.5418 7.98978 13.6754 8.09467 13.7803C8.19956 13.8852 8.3332 13.9566 8.47868 13.9856C8.62417 14.0145 8.77497 13.9997 8.91201 13.9429C9.04906 13.8861 9.16619 13.79 9.2486 13.6667C9.33101 13.5433 9.375 13.3983 9.375 13.25C9.375 13.0511 9.29598 12.8603 9.15533 12.7197C9.01468 12.579 8.82391 12.5 8.625 12.5ZM16.125 8.75H8.625C8.42609 8.75 8.23532 8.82902 8.09467 8.96967C7.95402 9.11032 7.875 9.30109 7.875 9.5C7.875 9.69891 7.95402 9.88968 8.09467 10.0303C8.23532 10.171 8.42609 10.25 8.625 10.25H16.125C16.3239 10.25 16.5147 10.171 16.6553 10.0303C16.796 9.88968 16.875 9.69891 16.875 9.5C16.875 9.30109 16.796 9.11032 16.6553 8.96967C16.5147 8.82902 16.3239 8.75 16.125 8.75ZM16.125 12.5H11.625C11.4261 12.5 11.2353 12.579 11.0947 12.7197C10.954 12.8603 10.875 13.0511 10.875 13.25C10.875 13.4489 10.954 13.6397 11.0947 13.7803C11.2353 13.921 11.4261 14 11.625 14H16.125C16.3239 14 16.5147 13.921 16.6553 13.7803C16.796 13.6397 16.875 13.4489 16.875 13.25C16.875 13.0511 16.796 12.8603 16.6553 12.7197C16.5147 12.579 16.3239 12.5 16.125 12.5Z" fill="white"/>
</svg>