<svg xmlns="http://www.w3.org/2000/svg" width="18" height="19" viewBox="0 0 18 19" fill="none">
<path d="M2.78249 12.7175C2.71116 12.6492 2.62705 12.5957 2.53499 12.56C2.3524 12.485 2.14759 12.485 1.96499 12.56C1.87293 12.5957 1.78882 12.6492 1.71749 12.7175C1.64921 12.7888 1.59569 12.8729 1.55999 12.965C1.50256 13.1016 1.48686 13.2521 1.5149 13.3976C1.54293 13.5431 1.61342 13.677 1.71749 13.7825C1.79039 13.8487 1.8741 13.902 1.96499 13.94C2.05477 13.9797 2.15184 14.0002 2.24999 14.0002C2.34814 14.0002 2.44522 13.9797 2.53499 13.94C2.62588 13.902 2.70959 13.8487 2.78249 13.7825C2.88656 13.677 2.95706 13.5431 2.98509 13.3976C3.01312 13.2521 2.99743 13.1016 2.93999 12.965C2.9043 12.8729 2.85077 12.7888 2.78249 12.7175ZM5.24999 6.5H15.75C15.9489 6.5 16.1397 6.42098 16.2803 6.28033C16.421 6.13968 16.5 5.94891 16.5 5.75C16.5 5.55109 16.421 5.36032 16.2803 5.21967C16.1397 5.07902 15.9489 5 15.75 5H5.24999C5.05108 5 4.86031 5.07902 4.71966 5.21967C4.57901 5.36032 4.49999 5.55109 4.49999 5.75C4.49999 5.94891 4.57901 6.13968 4.71966 6.28033C4.86031 6.42098 5.05108 6.5 5.24999 6.5ZM2.78249 8.9675C2.67702 8.86343 2.54309 8.79293 2.3976 8.7649C2.25211 8.73687 2.10157 8.75257 1.96499 8.81C1.8741 8.84798 1.79039 8.90125 1.71749 8.9675C1.64921 9.03883 1.59569 9.12294 1.55999 9.215C1.52031 9.30478 1.49982 9.40185 1.49982 9.5C1.49982 9.59815 1.52031 9.69522 1.55999 9.785C1.59797 9.87589 1.65124 9.9596 1.71749 10.0325C1.79039 10.0987 1.8741 10.152 1.96499 10.19C2.05477 10.2297 2.15184 10.2502 2.24999 10.2502C2.34814 10.2502 2.44522 10.2297 2.53499 10.19C2.62588 10.152 2.70959 10.0987 2.78249 10.0325C2.84874 9.9596 2.90201 9.87589 2.93999 9.785C2.97967 9.69522 3.00017 9.59815 3.00017 9.5C3.00017 9.40185 2.97967 9.30478 2.93999 9.215C2.9043 9.12294 2.85077 9.03883 2.78249 8.9675ZM15.75 8.75H5.24999C5.05108 8.75 4.86031 8.82902 4.71966 8.96967C4.57901 9.11032 4.49999 9.30109 4.49999 9.5C4.49999 9.69891 4.57901 9.88968 4.71966 10.0303C4.86031 10.171 5.05108 10.25 5.24999 10.25H15.75C15.9489 10.25 16.1397 10.171 16.2803 10.0303C16.421 9.88968 16.5 9.69891 16.5 9.5C16.5 9.30109 16.421 9.11032 16.2803 8.96967C16.1397 8.82902 15.9489 8.75 15.75 8.75ZM2.78249 5.2175C2.71116 5.14922 2.62705 5.0957 2.53499 5.06C2.39841 5.00257 2.24787 4.98687 2.10238 5.0149C1.95689 5.04293 1.82296 5.11343 1.71749 5.2175C1.65124 5.2904 1.59797 5.37411 1.55999 5.465C1.52031 5.55478 1.49982 5.65185 1.49982 5.75C1.49982 5.84815 1.52031 5.94522 1.55999 6.035C1.59797 6.12589 1.65124 6.2096 1.71749 6.2825C1.79039 6.34875 1.8741 6.40202 1.96499 6.44C2.10157 6.49743 2.25211 6.51313 2.3976 6.4851C2.54309 6.45707 2.67702 6.38657 2.78249 6.2825C2.84874 6.2096 2.90201 6.12589 2.93999 6.035C2.97967 5.94522 3.00017 5.84815 3.00017 5.75C3.00017 5.65185 2.97967 5.55478 2.93999 5.465C2.90201 5.37411 2.84874 5.2904 2.78249 5.2175ZM15.75 12.5H5.24999C5.05108 12.5 4.86031 12.579 4.71966 12.7197C4.57901 12.8603 4.49999 13.0511 4.49999 13.25C4.49999 13.4489 4.57901 13.6397 4.71966 13.7803C4.86031 13.921 5.05108 14 5.24999 14H15.75C15.9489 14 16.1397 13.921 16.2803 13.7803C16.421 13.6397 16.5 13.4489 16.5 13.25C16.5 13.0511 16.421 12.8603 16.2803 12.7197C16.1397 12.579 15.9489 12.5 15.75 12.5Z" fill="white"/>
</svg>